<?xml version="1.0" encoding="UTF-8" standalone="no"?>
<svg
   xmlns:dc="http://purl.org/dc/elements/1.1/"
   xmlns:cc="http://creativecommons.org/ns#"
   xmlns:rdf="http://www.w3.org/1999/02/22-rdf-syntax-ns#"
   xmlns:svg="http://www.w3.org/2000/svg"
   xmlns="http://www.w3.org/2000/svg"
   xmlns:sodipodi="http://sodipodi.sourceforge.net/DTD/sodipodi-0.dtd"
   xmlns:inkscape="http://www.inkscape.org/namespaces/inkscape"
   width="210mm"
   height="297mm"
   viewBox="0 0 210 297"
   version="1.1"
   id="svg8"
   inkscape:version="1.0.1 (3bc2e813f5, 2020-09-07)"
   sodipodi:docname="gunes.svg">
  <defs
     id="defs2">
    <rect
       x="82.853554"
       y="88.466214"
       width="28.33057"
       height="16.303441"
       id="rect113" />
    <rect
       x="73.327381"
       y="92.22619"
       width="46.869048"
       height="19.654762"
       id="rect91" />
    <inkscape:path-effect
       effect="simplify"
       id="path-effect23"
       is_visible="true"
       lpeversion="1"
       steps="1"
       threshold="0.000408163"
       smooth_angles="360"
       helper_size="0"
       simplify_individual_paths="false"
       simplify_just_coalesce="false" />
    <inkscape:path-effect
       effect="simplify"
       id="path-effect19"
       is_visible="true"
       lpeversion="1"
       steps="1"
       threshold="0.000408163"
       smooth_angles="360"
       helper_size="0"
       simplify_individual_paths="false"
       simplify_just_coalesce="false" />
  </defs>
  <sodipodi:namedview
     id="base"
     pagecolor="#ffffff"
     bordercolor="#666666"
     borderopacity="1.0"
     inkscape:pageopacity="0.0"
     inkscape:pageshadow="2"
     inkscape:zoom="0.98994949"
     inkscape:cx="400"
     inkscape:cy="373.12309"
     inkscape:document-units="mm"
     inkscape:current-layer="layer1"
     inkscape:document-rotation="0"
     showgrid="false"
     inkscape:window-width="1285"
     inkscape:window-height="860"
     inkscape:window-x="125"
     inkscape:window-y="0"
     inkscape:window-maximized="0" />
  <metadata
     id="metadata5">
    <rdf:RDF>
      <cc:Work
         rdf:about="">
        <dc:format>image/svg+xml</dc:format>
        <dc:type
           rdf:resource="http://purl.org/dc/dcmitype/StillImage" />
        <dc:title></dc:title>
      </cc:Work>
    </rdf:RDF>
  </metadata>
  <g
     inkscape:label="Katman 1"
     inkscape:groupmode="layer"
     id="layer1">
    <path
       id="use82"
       style="fill:#000000;stroke-width:0.999999"
       d="m 361.12305,202.85742 c -41.55344,0.0816 -67.63864,26.69665 -96.89654,56.60309 -29.2579,29.90644 -61.369,62.70337 -61.36909,104.82465 -4e-4,42.17313 31.14233,75.0191 60.46441,104.93402 29.32208,29.91491 56.50124,56.49541 98.1059,56.49566 41.60504,3.4e-4 68.78337,-28.59905 98.10591,-58.51402 C 488.85619,437.28585 520.0004,406.45866 520,364.28516 c -1.6e-4,-42.17314 -29.12356,-69.96874 -58.44605,-99.88325 -29.31836,-29.91031 -58.5099,-61.5399 -100.10864,-61.54449 -0.10168,-1e-4 -0.20495,-1e-4 -0.30664,0 h -0.0156 z"
       transform="scale(0.26458333)"
       sodipodi:nodetypes="sscssscscscs" />
    <path
       id="path80"
       style="fill:#ffff00;stroke-width:0.264583"
       d="M 133.04765,96.383926 A 37.419643,38.175598 0 0 1 95.628013,134.55952 37.419643,38.175598 0 0 1 58.208369,96.383926 37.419643,38.175598 0 0 1 95.628013,58.208328 37.419643,38.175598 0 0 1 133.04765,96.383926 Z" />
    <text
       xml:space="preserve"
       id="text111"
       style="font-style:normal;font-weight:normal;font-size:8.46667px;line-height:1.25;font-family:sans-serif;white-space:pre;shape-inside:url(#rect113);fill:#000000;fill-opacity:1;stroke:none;"
       transform="translate(-0.65724793)"><tspan
         x="82.853516"
         y="96.191197"><tspan
           style="font-size:8.46667px">Güneş</tspan></tspan></text>
  </g>
</svg>
